<svg width="140" height="26" viewBox="0 0 140 26" fill="none" xmlns="http://www.w3.org/2000/svg">
<path d="M7.17578 0.40625L13.75 18.9688L20.2891 0.40625H27.2148V26H21.9238V19.0039L22.4512 6.92773L15.543 26H11.9219L5.03125 6.94531L5.55859 19.0039V26H0.285156V0.40625H7.17578ZM46.5859 20.7266H37.3398L35.582 26H29.9746L39.502 0.40625H44.3887L53.9688 26H48.3613L46.5859 20.7266ZM38.7637 16.4551H45.1621L41.9453 6.875L38.7637 16.4551ZM65.834 16.6309H61.6328V26H56.3594V0.40625H65.8691C68.8926 0.40625 71.2246 1.08008 72.8652 2.42773C74.5059 3.77539 75.3262 5.67969 75.3262 8.14062C75.3262 9.88672 74.9453 11.3457 74.1836 12.5176C73.4336 13.6777 72.291 14.6035 70.7559 15.2949L76.293 25.7539V26H70.6328L65.834 16.6309ZM61.6328 12.3594H65.8867C67.2109 12.3594 68.2363 12.0254 68.9629 11.3574C69.6895 10.6777 70.0527 9.74609 70.0527 8.5625C70.0527 7.35547 69.707 6.40625 69.0156 5.71484C68.3359 5.02344 67.2871 4.67773 65.8691 4.67773H61.6328V12.3594ZM79.3516 26V0.40625H88.3164C91.4219 0.40625 93.7773 1.00391 95.3828 2.19922C96.9883 3.38281 97.791 5.12305 97.791 7.41992C97.791 8.67383 97.4688 9.78125 96.8242 10.7422C96.1797 11.6914 95.2832 12.3887 94.1348 12.834C95.4473 13.1621 96.4785 13.8242 97.2285 14.8203C97.9902 15.8164 98.3711 17.0352 98.3711 18.4766C98.3711 20.9375 97.5859 22.8008 96.0156 24.0664C94.4453 25.332 92.207 25.9766 89.3008 26H79.3516ZM84.625 14.8555V21.7637H89.1426C90.3848 21.7637 91.3516 21.4707 92.043 20.8848C92.7461 20.2871 93.0977 19.4668 93.0977 18.4238C93.0977 16.0801 91.8848 14.8906 89.459 14.8555H84.625ZM84.625 11.1289H88.5273C91.1875 11.082 92.5176 10.0215 92.5176 7.94727C92.5176 6.78711 92.1777 5.95508 91.498 5.45117C90.8301 4.93555 89.7695 4.67773 88.3164 4.67773H84.625V11.1289ZM107.617 21.7637H118.814V26H102.344V0.40625H107.617V21.7637ZM137.254 14.9082H127.129V21.7637H139.012V26H121.855V0.40625H138.977V4.67773H127.129V10.7773H137.254V14.9082Z" fill="black"/>
</svg>
